<?xml version="1.0" encoding="utf-8"?>
<!-- Generator: Adobe Illustrator 21.1.0, SVG Export Plug-In . SVG Version: 6.00 Build 0)  -->
<svg version="1.1" id="Layer_1" xmlns="http://www.w3.org/2000/svg" xmlns:xlink="http://www.w3.org/1999/xlink" x="0px" y="0px"
	 viewBox="0 0 232 163" style="enable-background:new 0 0 232 163;" xml:space="preserve">
<style type="text/css">
	.st0{fill-rule:evenodd;clip-rule:evenodd;fill:#FFFFFF;}
</style>
<path class="st0" d="M230.7,42.8c-0.1-4.8-1.2-25.2-11-28.9c-20.3-7.8-70.6-14-104.5-14c-34,0-84.2,6.2-104.5,14
	c-9.9,3.8-10.9,24.2-11,28.9c-0.2,1.4-0.2,2.7,0.1,4l1.9,9.7c1,5.3,6.2,8.8,11.5,7.7l44.6-8.6c5.3-1,8.8-6.2,7.7-11.5l-2.3-12
	c4.1-0.6,8.2-1.1,12.3-1.6L74,49.9c0,0-66.5,35.4-66.5,48.6c0,13.2,0,64.3,0,64.3h107.6h107.6c0,0,0-51.6,0-64.3
	c0-12.7-66.5-48.6-66.5-48.6l-1.3-19.4c4.1,0.5,8.2,1,12.3,1.6l-2.3,12c-1,5.3,2.4,10.4,7.7,11.5l44.6,8.6c5.3,1,10.4-2.4,11.5-7.7
	l1.9-9.7C230.8,45.5,230.8,44.2,230.7,42.8z M115.1,27.5c4.1,0,20,0.7,24.7,1.3c0-0.1-1.5,19.1-1.6,19.1h-23.1H92l-1.4-19.1
	C99.5,28,107.9,27.5,115.1,27.5z M115.1,136.4c-17.2,0-31.1-12.9-31.1-28.9c0-16,13.9-28.9,31.1-28.9s31.1,12.9,31.1,28.9
	C146.2,123.5,132.3,136.4,115.1,136.4z"/>
</svg>
